<?xml version="1.0" encoding="UTF-8"?>
<!DOCTYPE svg PUBLIC "-//W3C//DTD SVG 1.1//EN" "http://www.w3.org/Graphics/SVG/1.1/DTD/svg11.dtd">
<!-- Creator: CorelDRAW -->
<svg xmlns="http://www.w3.org/2000/svg" xml:space="preserve" width="210mm" height="297mm" version="1.1" style="shape-rendering:geometricPrecision; text-rendering:geometricPrecision; image-rendering:optimizeQuality; fill-rule:evenodd; clip-rule:evenodd"
viewBox="0 0 21000 29700"
 xmlns:xlink="http://www.w3.org/1999/xlink">
 <defs>
  <style type="text/css">
   <![CDATA[
    .fil0 {fill:#009C3D;fill-rule:nonzero}
   ]]>
  </style>
 </defs>
 <g id="Layer_x0020_1">
  <metadata id="CorelCorpID_0Corel-Layer"/>
  <path id="Grab.cdr" class="fil0" d="M16712 13354l0 -2548 522 0 0 2190c-142,71 -341,207 -522,358zm-908 766l0 0c160,-192 326,-387 522,-552l0 -2762 -522 0 0 3314zm-6053 2025l0 0c0,681 271,1326 763,1819 492,491 1138,762 1819,762 288,0 584,-62 794,-165l0 -522c-245,103 -541,164 -794,164 -1116,0 -2059,-942 -2059,-2058l0 -471c0,-1116 943,-2059 2059,-2059 554,0 1073,213 1459,599 387,387 599,905 599,1460l0 3052 523 0 0 -3153c-32,-666 -317,-1289 -801,-1755 -484,-468 -1117,-726 -1780,-726 -681,0 -1327,271 -1819,763 -492,492 -763,1138 -763,1819l0 471zm7822 -1250l0 0c236,-236 544,-372 846,-372 645,0 1151,506 1151,1151l0 471c0,645 -506,1151 -1151,1151 -313,0 -614,-172 -851,-482 -209,-275 -345,-646 -366,-979l-424 516c84,396 291,775 582,1041 302,275 678,427 1059,427 923,0 1674,-751 1674,-1674l0 -471c0,-437 -178,-855 -498,-1175 -322,-322 -739,-499 -1176,-499 -277,0 -716,99 -1240,570l-1 2c-141,140 -470,469 -670,704 -337,367 -825,921 -1242,1476l0 817c462,-595 728,-927 1163,-1429 389,-455 871,-1006 1144,-1245zm-12343 -986l0 0 0 -618c-472,-254 -989,-367 -1673,-367 -699,0 -1361,257 -1865,721 -505,466 -784,1079 -784,1726l0 169c0,1349 1083,2446 2413,2446 1083,0 1527,-354 1640,-465l0 -1571 -1767 0 0 523 1278 0 0 787 -5 1c-164,65 -506,203 -1146,203 -507,0 -982,-198 -1338,-558 -356,-360 -552,-846 -552,-1366l0 -169c0,-1043 973,-1924 2126,-1924 797,0 1268,130 1673,462zm3807 614l0 0c199,0 367,33 501,98 65,-162 132,-296 229,-458 -142,-102 -480,-163 -730,-163 -953,0 -1673,719 -1673,1674l0 3052 523 0 0 -3052c0,-678 473,-1151 1150,-1151zm-9037 848l0 0 0 169c0,906 344,1752 969,2381 623,628 1459,973 2352,973 719,0 1355,-162 1892,-482 443,-264 639,-531 656,-555l0 -2815 -2675 0 0 524 2152 0 0 2128 -2 3c-252,252 -850,674 -2023,674 -764,0 -1472,-291 -1993,-821 -520,-528 -805,-1242 -805,-2010l0 -169c0,-726 327,-1450 897,-1985 582,-546 1341,-847 2137,-847 741,0 1259,113 1673,365l0 -588c-432,-184 -948,-266 -1673,-266 -1928,0 -3557,1521 -3557,3321zm14006 3355l0 0 0 -3052c0,-939 -735,-1674 -1673,-1674 -438,0 -855,177 -1176,499 -321,320 -498,738 -498,1175l0 471c0,906 767,1674 1674,1674 248,0 587,-62 794,-232l0 -552c-204,163 -499,261 -794,261 -645,0 -1151,-506 -1151,-1151l0 -471c0,-645 506,-1151 1151,-1151 646,0 1151,506 1151,1151l0 3052 522 0zm-4969 -5111l0 0c356,0 663,76 940,233 130,-162 263,-295 360,-392 -293,-225 -790,-364 -1300,-364 -726,0 -1385,262 -1856,738 -467,472 -725,1127 -725,1844l0 3052 522 0 0 -3052c0,-1212 847,-2059 2059,-2059zm11201 240l0 0c-492,-492 -1138,-763 -1819,-763 -498,0 -999,185 -1274,369 -569,379 -1037,791 -1879,1879l0 782c715,-931 1391,-1664 1904,-2068 338,-271 817,-439 1249,-439 1116,0 2058,943 2058,2059l0 471c0,551 -217,1070 -611,1459 -391,387 -905,599 -1447,599 -917,0 -1724,-629 -1943,-1488l-369 446c269,901 1240,1565 2312,1565 681,0 1327,-271 1819,-762 492,-493 762,-1138 762,-1819l0 -471c0,-681 -270,-1327 -762,-1819z"/>
 </g>
</svg>
